<svg version="1.1" xmlns="http://www.w3.org/2000/svg" xmlns:xlink="http://www.w3.org/1999/xlink" width="24px" height="24px" viewBox="0,0,256,256"><g fill="#ffffff" fill-rule="nonzero" stroke="none" stroke-width="1" stroke-linecap="butt" stroke-linejoin="miter" stroke-miterlimit="10" stroke-dasharray="" stroke-dashoffset="0" font-family="none" font-weight="none" font-size="none" text-anchor="none" style="mix-blend-mode: normal"><g transform="translate(0.00197,0.00262) scale(10.66667,10.66667)"><path d="M22.386,12.003c-0.402,-0.167 -0.871,-0.056 -1.151,0.28c-0.928,1.105 -2.506,1.62 -4.968,1.62c-3.814,0 -6.179,-1.03 -6.179,-6.158c0,-2.397 0.532,-4.019 1.626,-4.957c0.33,-0.283 0.439,-0.749 0.269,-1.149c-0.17,-0.401 -0.571,-0.655 -1.015,-0.604c-5.683,0.538 -9.968,5.242 -9.968,10.943c0,6.062 4.944,10.993 11.022,10.993c5.72,0 10.438,-4.278 10.973,-9.951c0.042,-0.436 -0.205,-0.848 -0.609,-1.017z"></path></g></g></svg>